<svg xmlns="http://www.w3.org/2000/svg" viewBox="0 0 512 512" class="char char-bird">
<g class="c-shadow"><ellipse cx="256" cy="476" rx="120" ry="14" fill="#1A1A2E" opacity="0.15"/></g>
<g class="c-body"><rect x="232" y="420" width="12" height="36" rx="4" fill="#3D3D4D" stroke="#1A1A2E" stroke-width="6" stroke-linejoin="round" stroke-linecap="round"/><rect x="268" y="420" width="12" height="36" rx="4" fill="#3D3D4D" stroke="#1A1A2E" stroke-width="6" stroke-linejoin="round" stroke-linecap="round"/><polygon points="214,462 238,448 250,462" fill="#3D3D4D" stroke="#1A1A2E" stroke-width="6" stroke-linejoin="round" stroke-linecap="round"/><polygon points="262,462 274,448 298,462" fill="#3D3D4D" stroke="#1A1A2E" stroke-width="6" stroke-linejoin="round" stroke-linecap="round"/><ellipse cx="256" cy="330" rx="106" ry="110" fill="#C1653F" stroke="#1A1A2E" stroke-width="6" stroke-linejoin="round" stroke-linecap="round"/><polygon points="176,300 336,300 336,384 316,368 296,384 276,368 256,384 236,368 216,384 196,368 176,384" fill="#F3E6D0" stroke="#1A1A2E" stroke-width="6" stroke-linejoin="round" stroke-linecap="round"/><path d="M176 340l20-14 20 14 20-14 20 14 20-14 20 14 20-14 20 14" fill="none" stroke="#6AA3A8" stroke-width="8" stroke-linejoin="round" stroke-linecap="round"/><g class="c-head"><polygon points="246,118 258,82 278,126" fill="#5F7FB4" stroke="#1A1A2E" stroke-width="6" stroke-linejoin="round" stroke-linecap="round"/><circle cx="256" cy="196" r="76" fill="#5F7FB4" stroke="#1A1A2E" stroke-width="6" stroke-linejoin="round" stroke-linecap="round"/><g class="c-face"><g class="c-eyes"><circle cx="226" cy="186" r="16" fill="#FFFFFF" stroke="#1A1A2E" stroke-width="6" stroke-linejoin="round" stroke-linecap="round"/><circle cx="286" cy="186" r="16" fill="#FFFFFF" stroke="#1A1A2E" stroke-width="6" stroke-linejoin="round" stroke-linecap="round"/><circle cx="228" cy="188" r="7" fill="#1A1A2E"/><circle cx="288" cy="188" r="7" fill="#1A1A2E"/></g><g class="c-mouth"><polygon points="236,204 302,212 236,230" fill="#D9A441" stroke="#1A1A2E" stroke-width="6" stroke-linejoin="round" stroke-linecap="round"/></g></g></g></g>
<g class="c-arm-l"><path d="M164 300Q110 340 140 410Q190 400 212 350z" fill="#5F7FB4" stroke="#1A1A2E" stroke-width="6" stroke-linejoin="round" stroke-linecap="round"/></g>
<g class="c-arm-r"><path d="M348 300Q402 340 372 410Q322 400 300 350z" fill="#5F7FB4" stroke="#1A1A2E" stroke-width="6" stroke-linejoin="round" stroke-linecap="round"/></g>

<g class="c-prop c-pencil"><polygon points="330,310 398,292 404,308 336,326" fill="#FFC53D" stroke="#1A1A2E" stroke-width="6" stroke-linejoin="round" stroke-linecap="round"/><polygon points="398,292 422,298 404,308" fill="#1A1A2E" stroke="#1A1A2E" stroke-width="6" stroke-linejoin="round" stroke-linecap="round"/></g>
<g class="c-prop c-sweat"><path d="M372 84c0 0-18 26-18 38a18 18 0 0 0 36 0c0-12-18-38-18-38z" fill="#4CC9F0" stroke="#1A1A2E" stroke-width="6" stroke-linejoin="round" stroke-linecap="round"/></g>
<g class="c-gag"></g>
</svg>
