<svg xmlns="http://www.w3.org/2000/svg" viewBox="0 0 512 512" class="char char-duck"><g class="c-shadow"><ellipse cx="256" cy="476" rx="120" ry="14" fill="#1A1A2E" opacity="0.15"/></g><g class="c-body"><polygon points="206,462 230,440 254,462" fill="#F29738" stroke="#1A1A2E" stroke-width="6" stroke-linejoin="round" stroke-linecap="round"/><polygon points="258,462 282,440 306,462" fill="#F29738" stroke="#1A1A2E" stroke-width="6" stroke-linejoin="round" stroke-linecap="round"/><ellipse cx="256" cy="350" rx="100" ry="96" fill="#F1C753" stroke="#1A1A2E" stroke-width="6" stroke-linejoin="round" stroke-linecap="round"/><ellipse cx="256" cy="370" rx="66" ry="64" fill="#FCE096" stroke="#1A1A2E" stroke-width="6" stroke-linejoin="round" stroke-linecap="round"/><polygon points="210,272 302,272 272,300 282,338 256,318 230,338 240,300" fill="#C35435" stroke="#1A1A2E" stroke-width="6" stroke-linejoin="round" stroke-linecap="round"/><g class="c-head"><path d="M246 118Q244 84 276 86Q262 96 266 120z" fill="#F1C753" stroke="#1A1A2E" stroke-width="6" stroke-linejoin="round" stroke-linecap="round"/><circle cx="256" cy="194" r="80" fill="#F1C753" stroke="#1A1A2E" stroke-width="6" stroke-linejoin="round" stroke-linecap="round"/><g class="c-face"><g class="c-eyes"><circle cx="222" cy="184" r="16" fill="#FFFFFF" stroke="#1A1A2E" stroke-width="6" stroke-linejoin="round" stroke-linecap="round"/><circle cx="290" cy="184" r="16" fill="#FFFFFF" stroke="#1A1A2E" stroke-width="6" stroke-linejoin="round" stroke-linecap="round"/><circle cx="222" cy="190" r="8" fill="#1A1A2E"/><circle cx="290" cy="190" r="8" fill="#1A1A2E"/><path d="M204 176h36M272 176h36" fill="none" stroke="#1A1A2E" stroke-width="6" stroke-linecap="round"/></g><g class="c-mouth"><path d="M214 216Q256 204 298 216Q298 240 256 244Q214 240 214 216z" fill="#F4A03B" stroke="#1A1A2E" stroke-width="6" stroke-linejoin="round" stroke-linecap="round"/></g></g></g></g><g class="c-arm-l"><path d="M166 310Q112 350 142 414Q190 402 208 356z" fill="#E2B646" stroke="#1A1A2E" stroke-width="6" stroke-linejoin="round" stroke-linecap="round"/></g><g class="c-arm-r"><path d="M346 310Q400 350 370 414Q322 402 304 356z" fill="#E2B646" stroke="#1A1A2E" stroke-width="6" stroke-linejoin="round" stroke-linecap="round"/></g><g class="c-prop c-pencil"><polygon points="330,310 398,292 404,308 336,326" fill="#FFC53D" stroke="#1A1A2E" stroke-width="6" stroke-linejoin="round" stroke-linecap="round"/><polygon points="398,292 422,298 404,308" fill="#1A1A2E" stroke="#1A1A2E" stroke-width="6" stroke-linejoin="round" stroke-linecap="round"/></g><g class="c-prop c-sweat"><path d="M372 84c0 0-18 26-18 38a18 18 0 0 0 36 0c0-12-18-38-18-38z" fill="#4CC9F0" stroke="#1A1A2E" stroke-width="6" stroke-linejoin="round" stroke-linecap="round"/></g><g class="c-gag"></g></svg>
