<svg xmlns="http://www.w3.org/2000/svg" viewBox="0 0 512 512" class="char char-lemon">
<g class="c-shadow"><ellipse cx="256" cy="400" rx="140" ry="16" fill="#1A1A2E" opacity="0.15"/></g>
<g class="c-body"><circle cx="120" cy="280" r="22" fill="#FFD400" stroke="#1A1A2E" stroke-width="6" stroke-linejoin="round" stroke-linecap="round"/><circle cx="392" cy="280" r="22" fill="#FFD400" stroke="#1A1A2E" stroke-width="6" stroke-linejoin="round" stroke-linecap="round"/>
<ellipse cx="256" cy="280" rx="136" ry="106" fill="#FFD400" stroke="#1A1A2E" stroke-width="6" stroke-linejoin="round" stroke-linecap="round"/><g class="c-face"><g class="c-eyes"><path d="M178 262a26 22 0 0 0 52 0z" fill="#FFFFFF" stroke="#1A1A2E" stroke-width="6" stroke-linejoin="round" stroke-linecap="round"/><path d="M282 262a26 22 0 0 0 52 0z" fill="#FFFFFF" stroke="#1A1A2E" stroke-width="6" stroke-linejoin="round" stroke-linecap="round"/>
<circle cx="208" cy="270" r="8" fill="#1A1A2E"/><circle cx="312" cy="270" r="8" fill="#1A1A2E"/>
<path d="M176 236h56M280 236h56" fill="none" stroke="#1A1A2E" stroke-width="6" stroke-linejoin="round" stroke-linecap="round"/></g><g class="c-mouth"><path d="M230 322q28 14 50 -10" fill="none" stroke="#1A1A2E" stroke-width="6" stroke-linejoin="round" stroke-linecap="round"/></g></g></g>
<g class="c-arm-l"><polygon points="157,315 171,329 135,363 121,349" fill="#FFD400" stroke="#1A1A2E" stroke-width="6" stroke-linejoin="round" stroke-linecap="round"/><circle cx="128" cy="356" r="15" fill="#FFD400" stroke="#1A1A2E" stroke-width="6" stroke-linejoin="round" stroke-linecap="round"/></g>
<g class="c-arm-r"><polygon points="336,318 324,302 358,274 370,290" fill="#FFD400" stroke="#1A1A2E" stroke-width="6" stroke-linejoin="round" stroke-linecap="round"/><circle cx="364" cy="282" r="15" fill="#FFD400" stroke="#1A1A2E" stroke-width="6" stroke-linejoin="round" stroke-linecap="round"/></g>
<g class="c-prop c-mic"><polygon points="352,256 368,256 376,306 344,306" fill="#5C677D" stroke="#1A1A2E" stroke-width="6" stroke-linejoin="round" stroke-linecap="round"/><circle cx="360" cy="232" r="26" fill="#2B2D42" stroke="#1A1A2E" stroke-width="6" stroke-linejoin="round" stroke-linecap="round"/></g>
<g class="c-prop c-pencil"><polygon points="330,310 398,292 404,308 336,326" fill="#FFC53D" stroke="#1A1A2E" stroke-width="6" stroke-linejoin="round" stroke-linecap="round"/><polygon points="398,292 422,298 404,308" fill="#1A1A2E" stroke="#1A1A2E" stroke-width="6" stroke-linejoin="round" stroke-linecap="round"/></g>
<g class="c-prop c-sweat"><path d="M384 150c0 0-18 26-18 38a18 18 0 0 0 36 0c0-12-18-38-18-38z" fill="#4CC9F0" stroke="#1A1A2E" stroke-width="6" stroke-linejoin="round" stroke-linecap="round"/></g>
<g class="c-gag"><path d="M250 178q-4 -70 66 -82q6 62 -66 82z" fill="#4CAF50" stroke="#1A1A2E" stroke-width="6" stroke-linejoin="round" stroke-linecap="round"/><path d="M252 176q18 -30 50 -62" fill="none" stroke="#1A1A2E" stroke-width="6" stroke-linejoin="round" stroke-linecap="round"/></g>
</svg>
